<svg width="200" height="200" viewBox="0 0 200 200" fill="none" xmlns="http://www.w3.org/2000/svg">
<rect width="200" height="200" rx="20" fill="#6AAA64"/>
<mask id="path-2-outside-1_26_31" maskUnits="userSpaceOnUse" x="43" y="31" width="113" height="78" fill="black">
<rect fill="white" x="43" y="31" width="113" height="78"/>
<path d="M55.4386 52.448H48.3346V36.8H79.1506V52.448H73.3906L81.2626 88.352H82.1266L89.9026 53.888L89.5186 52.448H84.2386V36.8H114.671V52.448H108.815L117.071 88.352H117.935L125.807 52.448H120.047V36.8H150.575V52.448H143.567L131.279 104H108.047L99.5026 66.848L90.8626 104H67.6306L55.4386 52.448Z"/>
</mask>
<path d="M55.4386 52.448H48.3346V36.8H79.1506V52.448H73.3906L81.2626 88.352H82.1266L89.9026 53.888L89.5186 52.448H84.2386V36.8H114.671V52.448H108.815L117.071 88.352H117.935L125.807 52.448H120.047V36.8H150.575V52.448H143.567L131.279 104H108.047L99.5026 66.848L90.8626 104H67.6306L55.4386 52.448Z" fill="white"/>
<path d="M55.4386 52.448L60.3044 51.2972L59.3941 47.448H55.4386V52.448ZM48.3346 52.448H43.3346V57.448H48.3346V52.448ZM48.3346 36.8V31.8H43.3346V36.8H48.3346ZM79.1506 36.8H84.1506V31.8H79.1506V36.8ZM79.1506 52.448V57.448H84.1506V52.448H79.1506ZM73.3906 52.448V47.448H67.1756L68.5066 53.5188L73.3906 52.448ZM81.2626 88.352L76.3786 89.4228L77.2401 93.352H81.2626V88.352ZM82.1266 88.352V93.352H86.1242L87.004 89.4525L82.1266 88.352ZM89.9026 53.888L94.78 54.9885L95.0508 53.7884L94.7338 52.5997L89.9026 53.888ZM89.5186 52.448L94.3498 51.1597L93.36 47.448H89.5186V52.448ZM84.2386 52.448H79.2386V57.448H84.2386V52.448ZM84.2386 36.8V31.8H79.2386V36.8H84.2386ZM114.671 36.8H119.671V31.8H114.671V36.8ZM114.671 52.448V57.448H119.671V52.448H114.671ZM108.815 52.448V47.448H102.534L103.942 53.5685L108.815 52.448ZM117.071 88.352L112.198 89.4725L113.09 93.352H117.071V88.352ZM117.935 88.352V93.352H121.957L122.819 89.4228L117.935 88.352ZM125.807 52.448L130.691 53.5188L132.022 47.448H125.807V52.448ZM120.047 52.448H115.047V57.448H120.047V52.448ZM120.047 36.8V31.8H115.047V36.8H120.047ZM150.575 36.8H155.575V31.8H150.575V36.8ZM150.575 52.448V57.448H155.575V52.448H150.575ZM143.567 52.448V47.448H139.618L138.703 51.2887L143.567 52.448ZM131.279 104V109H135.227L136.142 105.159L131.279 104ZM108.047 104L103.174 105.121L104.066 109H108.047V104ZM99.5026 66.848L104.375 65.7274L94.6326 65.7154L99.5026 66.848ZM90.8626 104V109H94.8333L95.7327 105.133L90.8626 104ZM67.6306 104L62.7649 105.151L63.6752 109H67.6306V104ZM55.4386 47.448H48.3346V57.448H55.4386V47.448ZM53.3346 52.448V36.8H43.3346V52.448H53.3346ZM48.3346 41.8H79.1506V31.8H48.3346V41.8ZM74.1506 36.8V52.448H84.1506V36.8H74.1506ZM79.1506 47.448H73.3906V57.448H79.1506V47.448ZM68.5066 53.5188L76.3786 89.4228L86.1466 87.2812L78.2746 51.3772L68.5066 53.5188ZM81.2626 93.352H82.1266V83.352H81.2626V93.352ZM87.004 89.4525L94.78 54.9885L85.0252 52.7875L77.2492 87.2515L87.004 89.4525ZM94.7338 52.5997L94.3498 51.1597L84.6875 53.7363L85.0715 55.1763L94.7338 52.5997ZM89.5186 47.448H84.2386V57.448H89.5186V47.448ZM89.2386 52.448V36.8H79.2386V52.448H89.2386ZM84.2386 41.8H114.671V31.8H84.2386V41.8ZM109.671 36.8V52.448H119.671V36.8H109.671ZM114.671 47.448H108.815V57.448H114.671V47.448ZM103.942 53.5685L112.198 89.4725L121.943 87.2315L113.687 51.3275L103.942 53.5685ZM117.071 93.352H117.935V83.352H117.071V93.352ZM122.819 89.4228L130.691 53.5188L120.923 51.3772L113.051 87.2812L122.819 89.4228ZM125.807 47.448H120.047V57.448H125.807V47.448ZM125.047 52.448V36.8H115.047V52.448H125.047ZM120.047 41.8H150.575V31.8H120.047V41.8ZM145.575 36.8V52.448H155.575V36.8H145.575ZM150.575 47.448H143.567V57.448H150.575V47.448ZM138.703 51.2887L126.415 102.841L136.142 105.159L148.43 53.6073L138.703 51.2887ZM131.279 99H108.047V109H131.279V99ZM112.919 102.879L104.375 65.7274L94.6298 67.9686L103.174 105.121L112.919 102.879ZM94.6326 65.7154L85.9926 102.867L95.7327 105.133L104.373 67.9806L94.6326 65.7154ZM90.8626 99H67.6306V109H90.8626V99ZM72.4964 102.849L60.3044 51.2972L50.5728 53.5988L62.7649 105.151L72.4964 102.849Z" fill="black" mask="url(#path-2-outside-1_26_31)"/>
<mask id="path-4-outside-2_26_31" maskUnits="userSpaceOnUse" x="37" y="89" width="126" height="67" fill="black">
<rect fill="white" x="37" y="89" width="126" height="67"/>
<path d="M71.108 94.0909C74.9261 94.0909 78.3958 94.6364 81.517 95.7273C84.6686 96.8182 87.4867 98.2121 89.9716 99.9091C92.4564 101.576 94.6383 103.288 96.517 105.045C97.214 105.712 97.8201 106.318 98.3352 106.864C98.8807 107.409 99.4261 108 99.9716 108.636C100.487 108 101.002 107.409 101.517 106.864C102.062 106.288 102.669 105.682 103.335 105.045C106.214 102.348 109.79 99.8485 114.062 97.5455C118.366 95.2424 123.29 94.0909 128.835 94.0909C134.169 94.0909 139.017 95.3788 143.381 97.9545C147.775 100.5 151.275 103.924 153.881 108.227C156.487 112.5 157.79 117.212 157.79 122.364C157.79 126.273 157.032 129.939 155.517 133.364C154.032 136.758 151.956 139.758 149.29 142.364C146.653 144.939 143.578 146.97 140.062 148.455C136.578 149.909 132.835 150.636 128.835 150.636C125.078 150.636 121.638 150.106 118.517 149.045C115.396 147.985 112.593 146.652 110.108 145.045C107.623 143.409 105.441 141.742 103.562 140.045C102.744 139.288 102.062 138.636 101.517 138.091C101.002 137.515 100.487 136.909 99.9716 136.273C99.3655 136.97 98.7898 137.591 98.2443 138.136C97.7292 138.682 97.1231 139.318 96.4261 140.045C94.608 141.682 92.4564 143.318 89.9716 144.955C87.4867 146.561 84.6686 147.909 81.517 149C78.3958 150.091 74.9261 150.636 71.108 150.636C65.7746 150.636 60.9261 149.364 56.5625 146.818C52.1989 144.273 48.714 140.864 46.108 136.591C43.5019 132.318 42.1989 127.576 42.1989 122.364C42.1989 118.485 42.9413 114.848 44.4261 111.455C45.9413 108.03 48.017 105.015 50.6534 102.409C53.3201 99.803 56.3958 97.7727 59.8807 96.3182C63.3958 94.8333 67.1383 94.0909 71.108 94.0909ZM59.1989 122.364C59.1989 124.485 59.7292 126.409 60.7898 128.136C61.8807 129.833 63.3201 131.197 65.108 132.227C66.9261 133.227 68.9261 133.727 71.108 133.727C73.714 133.727 76.108 133.182 78.2898 132.091C80.5019 131 82.6231 129.545 84.6534 127.727C85.8049 126.667 86.7595 125.682 87.517 124.773C88.2746 123.864 88.8958 123.061 89.3807 122.364C88.8352 121.667 88.0625 120.788 87.0625 119.727C86.0928 118.636 85.2898 117.788 84.6534 117.182C82.8352 115.455 80.7746 114 78.4716 112.818C76.1686 111.606 73.714 111 71.108 111C68.9261 111 66.9261 111.53 65.108 112.591C63.3201 113.621 61.8807 115 60.7898 116.727C59.7292 118.424 59.1989 120.303 59.1989 122.364ZM140.653 122.364C140.653 120.303 140.123 118.424 139.062 116.727C138.032 115 136.623 113.621 134.835 112.591C133.047 111.53 131.047 111 128.835 111C127.078 111 125.381 111.288 123.744 111.864C122.108 112.409 120.578 113.167 119.153 114.136C117.759 115.076 116.487 116.091 115.335 117.182C114.517 117.97 113.638 118.894 112.699 119.955C111.759 121.015 111.062 121.818 110.608 122.364C111.184 123.212 111.85 124.076 112.608 124.955C113.366 125.803 114.275 126.727 115.335 127.727C117.244 129.485 119.305 130.924 121.517 132.045C123.759 133.167 126.199 133.727 128.835 133.727C131.047 133.727 133.047 133.227 134.835 132.227C136.623 131.197 138.032 129.833 139.062 128.136C140.123 126.409 140.653 124.485 140.653 122.364Z"/>
</mask>
<path d="M71.108 94.0909C74.9261 94.0909 78.3958 94.6364 81.517 95.7273C84.6686 96.8182 87.4867 98.2121 89.9716 99.9091C92.4564 101.576 94.6383 103.288 96.517 105.045C97.214 105.712 97.8201 106.318 98.3352 106.864C98.8807 107.409 99.4261 108 99.9716 108.636C100.487 108 101.002 107.409 101.517 106.864C102.062 106.288 102.669 105.682 103.335 105.045C106.214 102.348 109.79 99.8485 114.062 97.5455C118.366 95.2424 123.29 94.0909 128.835 94.0909C134.169 94.0909 139.017 95.3788 143.381 97.9545C147.775 100.5 151.275 103.924 153.881 108.227C156.487 112.5 157.79 117.212 157.79 122.364C157.79 126.273 157.032 129.939 155.517 133.364C154.032 136.758 151.956 139.758 149.29 142.364C146.653 144.939 143.578 146.97 140.062 148.455C136.578 149.909 132.835 150.636 128.835 150.636C125.078 150.636 121.638 150.106 118.517 149.045C115.396 147.985 112.593 146.652 110.108 145.045C107.623 143.409 105.441 141.742 103.562 140.045C102.744 139.288 102.062 138.636 101.517 138.091C101.002 137.515 100.487 136.909 99.9716 136.273C99.3655 136.97 98.7898 137.591 98.2443 138.136C97.7292 138.682 97.1231 139.318 96.4261 140.045C94.608 141.682 92.4564 143.318 89.9716 144.955C87.4867 146.561 84.6686 147.909 81.517 149C78.3958 150.091 74.9261 150.636 71.108 150.636C65.7746 150.636 60.9261 149.364 56.5625 146.818C52.1989 144.273 48.714 140.864 46.108 136.591C43.5019 132.318 42.1989 127.576 42.1989 122.364C42.1989 118.485 42.9413 114.848 44.4261 111.455C45.9413 108.03 48.017 105.015 50.6534 102.409C53.3201 99.803 56.3958 97.7727 59.8807 96.3182C63.3958 94.8333 67.1383 94.0909 71.108 94.0909ZM59.1989 122.364C59.1989 124.485 59.7292 126.409 60.7898 128.136C61.8807 129.833 63.3201 131.197 65.108 132.227C66.9261 133.227 68.9261 133.727 71.108 133.727C73.714 133.727 76.108 133.182 78.2898 132.091C80.5019 131 82.6231 129.545 84.6534 127.727C85.8049 126.667 86.7595 125.682 87.517 124.773C88.2746 123.864 88.8958 123.061 89.3807 122.364C88.8352 121.667 88.0625 120.788 87.0625 119.727C86.0928 118.636 85.2898 117.788 84.6534 117.182C82.8352 115.455 80.7746 114 78.4716 112.818C76.1686 111.606 73.714 111 71.108 111C68.9261 111 66.9261 111.53 65.108 112.591C63.3201 113.621 61.8807 115 60.7898 116.727C59.7292 118.424 59.1989 120.303 59.1989 122.364ZM140.653 122.364C140.653 120.303 140.123 118.424 139.062 116.727C138.032 115 136.623 113.621 134.835 112.591C133.047 111.53 131.047 111 128.835 111C127.078 111 125.381 111.288 123.744 111.864C122.108 112.409 120.578 113.167 119.153 114.136C117.759 115.076 116.487 116.091 115.335 117.182C114.517 117.97 113.638 118.894 112.699 119.955C111.759 121.015 111.062 121.818 110.608 122.364C111.184 123.212 111.85 124.076 112.608 124.955C113.366 125.803 114.275 126.727 115.335 127.727C117.244 129.485 119.305 130.924 121.517 132.045C123.759 133.167 126.199 133.727 128.835 133.727C131.047 133.727 133.047 133.227 134.835 132.227C136.623 131.197 138.032 129.833 139.062 128.136C140.123 126.409 140.653 124.485 140.653 122.364Z" fill="white"/>
<path d="M81.517 95.7273L79.8673 100.447L79.8744 100.45L79.8815 100.452L81.517 95.7273ZM89.9716 99.9091L87.1518 104.038L87.169 104.05L87.1864 104.062L89.9716 99.9091ZM96.517 105.045L99.9732 101.432L99.9531 101.413L99.9328 101.394L96.517 105.045ZM98.3352 106.864L94.7002 110.297L94.7492 110.349L94.7997 110.399L98.3352 106.864ZM99.9716 108.636L96.1753 111.89L100.081 116.447L103.858 111.782L99.9716 108.636ZM101.517 106.864L97.8873 103.425L97.882 103.431L101.517 106.864ZM103.335 105.045L99.9168 101.397L99.8997 101.413L99.8828 101.429L103.335 105.045ZM114.062 97.5455L111.703 93.1371L111.697 93.1406L111.69 93.1441L114.062 97.5455ZM143.381 97.9545L140.839 102.26L140.857 102.271L140.874 102.281L143.381 97.9545ZM153.881 108.227L149.604 110.817L149.608 110.824L149.612 110.831L153.881 108.227ZM155.517 133.364L150.945 131.34L150.94 131.35L150.936 131.36L155.517 133.364ZM149.29 142.364L152.784 145.94L152.784 145.94L149.29 142.364ZM140.062 148.455L141.988 153.069L141.998 153.065L142.008 153.06L140.062 148.455ZM118.517 149.045L116.908 153.78L116.908 153.78L118.517 149.045ZM110.108 145.045L107.358 149.221L107.376 149.233L107.394 149.245L110.108 145.045ZM103.562 140.045L100.165 143.714L100.188 143.735L100.211 143.756L103.562 140.045ZM101.517 138.091L97.7908 141.425L97.8834 141.528L97.9815 141.626L101.517 138.091ZM99.9716 136.273L103.858 133.127L100.109 128.495L96.1986 132.992L99.9716 136.273ZM98.2443 138.136L94.7088 134.601L94.6583 134.651L94.6093 134.703L98.2443 138.136ZM96.4261 140.045L99.771 143.762L99.9083 143.638L100.036 143.505L96.4261 140.045ZM89.9716 144.955L92.6857 149.154L92.7037 149.142L92.7215 149.13L89.9716 144.955ZM81.517 149L79.8815 144.275L79.8744 144.278L79.8673 144.28L81.517 149ZM56.5625 146.818L54.0431 151.137L56.5625 146.818ZM46.108 136.591L50.3766 133.987L50.3766 133.987L46.108 136.591ZM44.4261 111.455L39.8537 109.431L39.8495 109.441L39.8453 109.45L44.4261 111.455ZM50.6534 102.409L47.1587 98.8332L47.1485 98.8431L47.1384 98.8532L50.6534 102.409ZM59.8807 96.3182L61.8066 100.932L61.8165 100.928L61.8263 100.924L59.8807 96.3182ZM60.7898 128.136L56.5289 130.753L56.5559 130.797L56.5839 130.84L60.7898 128.136ZM65.108 132.227L62.6115 136.559L62.6547 136.584L62.6984 136.608L65.108 132.227ZM78.2898 132.091L76.0783 127.607L76.066 127.613L76.0537 127.619L78.2898 132.091ZM84.6534 127.727L87.989 131.452L88.0151 131.429L88.0408 131.405L84.6534 127.727ZM87.517 124.773L91.3582 127.974L91.3582 127.974L87.517 124.773ZM89.3807 122.364L93.4852 125.219L95.5931 122.189L93.3182 119.282L89.3807 122.364ZM87.0625 119.727L83.3255 123.049L83.3742 123.104L83.4246 123.157L87.0625 119.727ZM84.6534 117.182L88.1017 113.561L88.0972 113.557L84.6534 117.182ZM78.4716 112.818L76.1429 117.243L76.1658 117.255L76.1888 117.267L78.4716 112.818ZM65.108 112.591L67.6045 116.923L67.6159 116.916L67.6273 116.91L65.108 112.591ZM60.7898 116.727L56.5623 114.057L56.556 114.067L56.5498 114.077L60.7898 116.727ZM139.062 116.727L134.768 119.289L134.795 119.333L134.823 119.377L139.062 116.727ZM134.835 112.591L132.284 116.891L132.311 116.907L132.339 116.923L134.835 112.591ZM123.744 111.864L125.325 116.607L125.365 116.594L125.404 116.58L123.744 111.864ZM119.153 114.136L121.948 118.283L121.958 118.276L121.967 118.269L119.153 114.136ZM115.335 117.182L111.897 113.552L111.882 113.566L111.867 113.58L115.335 117.182ZM112.699 119.955L116.442 123.27L116.442 123.27L112.699 119.955ZM110.608 122.364L106.767 119.163L104.356 122.055L106.471 125.171L110.608 122.364ZM112.608 124.955L108.821 128.219L108.849 128.252L108.878 128.285L112.608 124.955ZM115.335 127.727L111.905 131.365L111.927 131.386L111.949 131.406L115.335 127.727ZM121.517 132.045L119.257 136.505L119.269 136.511L119.281 136.518L121.517 132.045ZM134.835 132.227L137.276 136.591L137.304 136.575L137.332 136.559L134.835 132.227ZM139.062 128.136L134.802 125.52L134.795 125.531L134.789 125.541L139.062 128.136ZM71.108 99.0909C74.4498 99.0909 77.3514 99.5679 79.8673 100.447L83.1668 91.0073C79.4402 89.7048 75.4025 89.0909 71.108 89.0909V99.0909ZM79.8815 100.452C82.6584 101.413 85.0707 102.617 87.1518 104.038L92.7914 95.7801C89.9028 93.8074 86.6788 92.2229 83.1526 91.0023L79.8815 100.452ZM87.1864 104.062C89.483 105.602 91.4475 107.15 93.1013 108.697L99.9328 101.394C97.829 99.426 95.4299 97.5496 92.7568 95.7566L87.1864 104.062ZM93.0609 108.659C93.713 109.282 94.2567 109.827 94.7002 110.297L101.97 103.431C101.383 102.809 100.715 102.142 99.9732 101.432L93.0609 108.659ZM94.7997 110.399C95.2473 110.847 95.7061 111.343 96.1753 111.89L103.768 105.382C103.146 104.657 102.514 103.971 101.871 103.328L94.7997 110.399ZM103.858 111.782C104.3 111.236 104.732 110.742 105.152 110.297L97.882 103.431C97.272 104.076 96.6734 104.764 96.0854 105.49L103.858 111.782ZM105.147 110.302C105.626 109.796 106.172 109.25 106.788 108.662L99.8828 101.429C99.165 102.114 98.4987 102.78 97.8873 103.425L105.147 110.302ZM106.754 108.694C109.255 106.351 112.458 104.09 116.435 101.947L111.69 93.1441C107.121 95.6068 103.173 98.3462 99.9168 101.397L106.754 108.694ZM116.422 101.954C119.905 100.089 124 99.0909 128.835 99.0909V89.0909C122.58 89.0909 116.826 90.3955 111.703 93.1371L116.422 101.954ZM128.835 99.0909C133.323 99.0909 137.286 100.163 140.839 102.26L145.922 93.6487C140.748 90.5943 135.014 89.0909 128.835 89.0909V99.0909ZM140.874 102.281C144.549 104.41 147.437 107.24 149.604 110.817L158.157 105.637C155.112 100.609 151 96.5903 145.887 93.6281L140.874 102.281ZM149.612 110.831C151.725 114.296 152.79 118.102 152.79 122.364H162.79C162.79 116.322 161.248 110.704 158.149 105.624L149.612 110.831ZM152.79 122.364C152.79 125.607 152.165 128.581 150.945 131.34L160.089 135.387C161.899 131.297 162.79 126.938 162.79 122.364H152.79ZM150.936 131.36C149.711 134.161 148.005 136.628 145.795 138.788L152.784 145.94C155.908 142.887 158.354 139.354 160.098 135.368L150.936 131.36ZM145.796 138.787C143.622 140.911 141.077 142.598 138.117 143.849L142.008 153.06C146.079 151.341 149.685 148.968 152.784 145.94L145.796 138.787ZM138.137 143.84C135.298 145.025 132.214 145.636 128.835 145.636V155.636C133.457 155.636 137.858 154.793 141.988 153.069L138.137 143.84ZM128.835 145.636C125.549 145.636 122.662 145.173 120.126 144.311L116.908 153.78C120.614 155.039 124.606 155.636 128.835 155.636V145.636ZM120.126 144.311C117.35 143.368 114.925 142.206 112.822 140.846L107.394 149.245C110.26 151.097 113.442 152.602 116.908 153.78L120.126 144.311ZM112.858 140.87C110.549 139.349 108.575 137.835 106.914 136.335L100.211 143.756C102.307 145.65 104.697 147.469 107.358 149.221L112.858 140.87ZM106.96 136.377C106.17 135.645 105.538 135.041 105.053 134.555L97.9815 141.626C98.5873 142.232 99.319 142.93 100.165 143.714L106.96 136.377ZM105.243 134.757C104.786 134.246 104.324 133.703 103.858 133.127L96.0854 139.419C96.6493 140.115 97.2177 140.784 97.7908 141.425L105.243 134.757ZM96.1986 132.992C95.6544 133.618 95.158 134.152 94.7088 134.601L101.78 141.672C102.422 141.03 103.077 140.322 103.745 139.554L96.1986 132.992ZM94.6093 134.703C94.1047 135.237 93.5074 135.865 92.8162 136.586L100.036 143.505C100.739 142.772 101.354 142.126 101.879 141.569L94.6093 134.703ZM93.0813 136.329C91.4844 137.766 89.54 139.252 87.2216 140.779L92.7215 149.13C95.3728 147.384 97.7315 145.597 99.771 143.762L93.0813 136.329ZM87.2575 140.755C85.1493 142.118 82.7009 143.299 79.8815 144.275L83.1526 153.725C86.6362 152.519 89.8242 151.003 92.6857 149.154L87.2575 140.755ZM79.8673 144.28C77.3514 145.159 74.4498 145.636 71.108 145.636V155.636C75.4025 155.636 79.4402 155.022 83.1668 153.72L79.8673 144.28ZM71.108 145.636C66.6086 145.636 62.6377 144.574 59.0819 142.499L54.0431 151.137C59.2146 154.154 64.9406 155.636 71.108 155.636V145.636ZM59.0819 142.499C55.4275 140.368 52.5466 137.545 50.3766 133.987L41.8393 139.194C44.8814 144.182 48.9702 148.178 54.0431 151.137L59.0819 142.499ZM50.3766 133.987C48.2692 130.532 47.1989 126.697 47.1989 122.364H37.1989C37.1989 128.454 38.7346 134.104 41.8393 139.194L50.3766 133.987ZM47.1989 122.364C47.1989 119.142 47.8115 116.191 49.0069 113.459L39.8453 109.45C38.071 113.506 37.1989 117.828 37.1989 122.364H47.1989ZM48.9985 113.478C50.2629 110.62 51.982 108.126 54.1684 105.965L47.1384 98.8532C44.0521 101.904 41.6196 105.44 39.8537 109.431L48.9985 113.478ZM54.1481 105.985C56.3564 103.827 58.898 102.146 61.8066 100.932L57.9548 91.704C53.8936 93.3991 50.2838 95.7791 47.1587 98.8332L54.1481 105.985ZM61.8263 100.924C64.7009 99.7098 67.7791 99.0909 71.108 99.0909V89.0909C66.4974 89.0909 62.0907 89.9568 57.9351 91.7122L61.8263 100.924ZM54.1989 122.364C54.1989 125.363 54.962 128.201 56.5289 130.753L65.0506 125.52C64.4963 124.617 64.1989 123.606 64.1989 122.364H54.1989ZM56.5839 130.84C58.1166 133.224 60.1484 135.14 62.6115 136.559L67.6044 127.895C66.4918 127.254 65.6448 126.442 64.9957 125.433L56.5839 130.84ZM62.6984 136.608C65.2931 138.035 68.1285 138.727 71.108 138.727V128.727C69.7237 128.727 68.5591 128.419 67.5176 127.846L62.6984 136.608ZM71.108 138.727C74.4359 138.727 77.6027 138.025 80.5258 136.563L76.0537 127.619C74.6132 128.339 72.9921 128.727 71.108 128.727V138.727ZM80.5012 136.575C83.161 135.264 85.6553 133.542 87.989 131.452L81.3178 124.003C79.5909 125.549 77.8428 126.736 76.0783 127.607L80.5012 136.575ZM88.0408 131.405C89.3057 130.24 90.4235 129.095 91.3582 127.974L83.6759 121.572C83.0955 122.268 82.3042 123.093 81.266 124.05L88.0408 131.405ZM91.3582 127.974C92.1754 126.993 92.8926 126.071 93.4852 125.219L85.2762 119.508C84.8991 120.05 84.3738 120.734 83.6759 121.572L91.3582 127.974ZM93.3182 119.282C92.6377 118.413 91.7478 117.408 90.7004 116.297L83.4246 123.157C84.3772 124.168 85.0328 124.921 85.4432 125.445L93.3182 119.282ZM90.7995 116.405C89.7893 115.269 88.8821 114.304 88.1017 113.561L81.2051 120.803C81.6974 121.271 82.3963 122.004 83.3255 123.049L90.7995 116.405ZM88.0972 113.557C85.9222 111.491 83.4679 109.762 80.7544 108.37L76.1888 117.267C78.0813 118.238 79.7483 119.418 81.2097 120.807L88.0972 113.557ZM80.8003 108.394C77.7782 106.803 74.5243 106 71.108 106V116C72.9037 116 74.5589 116.409 76.1429 117.243L80.8003 108.394ZM71.108 106C68.0747 106 65.2001 106.749 62.5886 108.272L67.6273 116.91C68.6521 116.312 69.7776 116 71.108 116V106ZM62.6115 108.259C60.1276 109.69 58.0913 111.636 56.5623 114.057L65.0172 119.397C65.6701 118.364 66.5125 117.552 67.6045 116.923L62.6115 108.259ZM56.5498 114.077C54.9772 116.593 54.1989 119.395 54.1989 122.364H64.1989C64.1989 121.211 64.4811 120.255 65.0298 119.377L56.5498 114.077ZM145.653 122.364C145.653 119.395 144.875 116.593 143.302 114.077L134.823 119.377C135.371 120.255 135.653 121.211 135.653 122.364H145.653ZM143.357 114.166C141.877 111.685 139.84 109.704 137.332 108.259L132.339 116.923C133.406 117.538 134.188 118.315 134.768 119.289L143.357 114.166ZM137.386 108.291C134.776 106.742 131.885 106 128.835 106V116C130.209 116 131.318 116.318 132.284 116.891L137.386 108.291ZM128.835 106C126.52 106 124.261 106.381 122.085 107.147L125.404 116.58C126.5 116.195 127.635 116 128.835 116V106ZM122.163 107.12C120.09 107.811 118.145 108.774 116.339 110.003L121.967 118.269C123.01 117.559 124.126 117.007 125.325 116.607L122.163 107.12ZM116.359 109.99C114.75 111.074 113.26 112.261 111.897 113.552L118.774 120.812C119.714 119.921 120.769 119.077 121.948 118.283L116.359 109.99ZM111.867 113.58C110.934 114.479 109.963 115.503 108.956 116.639L116.442 123.27C117.314 122.285 118.1 121.46 118.803 120.783L111.867 113.58ZM108.956 116.639C108.009 117.708 107.271 118.557 106.767 119.163L114.449 125.565C114.854 125.079 115.51 124.322 116.442 123.27L108.956 116.639ZM106.471 125.171C107.167 126.198 107.954 127.213 108.821 128.219L116.395 121.69C115.747 120.938 115.2 120.227 114.745 119.556L106.471 125.171ZM108.878 128.285C109.753 129.265 110.768 130.293 111.905 131.365L118.765 124.089C117.782 123.162 116.978 122.341 116.338 121.624L108.878 128.285ZM111.949 131.406C114.18 133.46 116.616 135.167 119.257 136.505L123.778 127.586C121.993 126.681 120.309 125.51 118.722 124.049L111.949 131.406ZM119.281 136.518C122.254 138.004 125.464 138.727 128.835 138.727V128.727C126.934 128.727 125.265 128.329 123.753 127.573L119.281 136.518ZM128.835 138.727C131.832 138.727 134.683 138.041 137.276 136.591L132.394 127.863C131.411 128.413 130.263 128.727 128.835 128.727V138.727ZM137.332 136.559C139.819 135.126 141.852 133.177 143.336 130.731L134.789 125.541C134.213 126.49 133.427 127.268 132.339 127.895L137.332 136.559ZM143.323 130.753C144.89 128.201 145.653 125.363 145.653 122.364H135.653C135.653 123.606 135.356 124.617 134.802 125.52L143.323 130.753Z" fill="black" mask="url(#path-4-outside-2_26_31)"/>
</svg>
